<svg width="960" height="600" viewBox="0 0 960 600" fill="none" xmlns="http://www.w3.org/2000/svg" role="img" aria-labelledby="title desc">
  <title id="title">Portfolio project placeholder</title>
  <desc id="desc">Abstract placeholder showing a responsive portfolio website preview.</desc>
  <rect width="960" height="600" fill="#F8F6F1"/>
  <rect x="84" y="76" width="612" height="392" rx="8" fill="#FFFFFF" stroke="#D7D3C6" stroke-width="2"/>
  <rect x="84" y="76" width="612" height="54" rx="8" fill="#102A27"/>
  <circle cx="118" cy="103" r="7" fill="#D97706"/>
  <circle cx="144" cy="103" r="7" fill="#14B8A6"/>
  <circle cx="170" cy="103" r="7" fill="#E8F3F0"/>
  <rect x="124" y="176" width="208" height="24" rx="12" fill="#0F766E"/>
  <rect x="124" y="224" width="364" height="18" rx="9" fill="#B9DCD6"/>
  <rect x="124" y="260" width="316" height="18" rx="9" fill="#B9DCD6"/>
  <rect x="124" y="326" width="148" height="44" rx="8" fill="#0F766E"/>
  <rect x="292" y="326" width="112" height="44" rx="8" fill="#FFFFFF" stroke="#0F766E" stroke-width="2"/>
  <rect x="520" y="170" width="116" height="116" rx="8" fill="#EAF6F3"/>
  <circle cx="578" cy="216" r="34" fill="#D97706"/>
  <rect x="498" y="342" width="138" height="16" rx="8" fill="#D7E3E0"/>
  <rect x="498" y="374" width="104" height="16" rx="8" fill="#D7E3E0"/>
  <rect x="596" y="204" width="280" height="320" rx="8" fill="#102A27" stroke="#24524C" stroke-width="2"/>
  <rect x="628" y="244" width="216" height="42" rx="8" fill="#EAF6F3"/>
  <rect x="628" y="318" width="168" height="16" rx="8" fill="#14B8A6"/>
  <rect x="628" y="356" width="198" height="12" rx="6" fill="#84BDB4"/>
  <rect x="628" y="386" width="152" height="12" rx="6" fill="#84BDB4"/>
  <rect x="628" y="442" width="92" height="36" rx="8" fill="#D97706"/>
  <rect x="84" y="536" width="260" height="14" rx="7" fill="#635B4E"/>
  <rect x="368" y="536" width="142" height="14" rx="7" fill="#D97706"/>
</svg>
